<?xml version="1.0" standalone="no"?>
<!DOCTYPE svg PUBLIC "-//W3C//DTD SVG 20010904//EN"
 "http://www.w3.org/TR/2001/REC-SVG-20010904/DTD/svg10.dtd">
<svg version="1.0" xmlns="http://www.w3.org/2000/svg"
 width="274.000000pt" height="198.000000pt" viewBox="0 0 274.000000 198.000000"
 preserveAspectRatio="xMidYMid meet">

<g transform="translate(0.000000,198.000000) scale(0.100000,-0.100000)"
fill="#000000" stroke="none">
<path d="M203 1483 c-52 -5 -58 -28 -9 -37 19 -4 37 -14 40 -22 3 -9 6 -146 6
-304 0 -300 4 -328 40 -280 17 23 18 23 65 6 87 -29 145 -19 204 37 76 72 93
183 43 278 -49 93 -157 126 -233 70 -15 -12 -31 -21 -34 -21 -3 0 -5 63 -5
140 l0 140 -37 -2 c-21 -1 -57 -3 -80 -5z m272 -295 c38 -30 55 -76 55 -153 0
-77 -17 -123 -55 -153 -41 -32 -87 -29 -124 9 l-31 31 0 122 c0 105 3 125 18
138 39 34 98 37 137 6z"/>
<path d="M2400 1315 l0 -65 -40 0 c-33 0 -40 -3 -40 -20 0 -17 7 -20 39 -20
l40 0 3 -170 c3 -193 6 -199 79 -207 50 -5 124 17 124 38 0 10 -12 13 -43 10
-77 -5 -82 7 -82 181 l0 148 60 0 c53 0 60 2 60 20 0 18 -7 20 -60 20 l-60 0
0 65 0 65 -40 0 -40 0 0 -65z"/>
<path d="M804 1241 c-130 -59 -163 -250 -61 -356 34 -35 51 -44 90 -50 79 -12
166 26 198 87 20 38 -10 38 -45 1 -25 -27 -42 -36 -77 -40 -41 -5 -50 -2 -82
27 -99 87 -62 320 51 320 45 0 56 -13 48 -58 -7 -48 12 -75 53 -70 37 4 50 47
29 91 -30 63 -123 85 -204 48z"/>
<path d="M1108 1253 c-25 -3 -38 -9 -38 -19 0 -8 7 -14 15 -14 8 0 24 -9 35
-20 18 -18 20 -33 20 -163 0 -148 -5 -167 -42 -167 -10 0 -18 -7 -18 -15 0
-12 19 -15 110 -15 91 0 110 3 110 15 0 8 -9 15 -21 15 -11 0 -29 5 -40 10
-17 10 -19 22 -19 144 l0 134 31 26 c37 31 63 35 54 7 -7 -22 18 -51 44 -51
25 0 41 20 41 52 0 15 2 28 5 28 12 0 55 -24 59 -34 81 -193 136 -333 136
-350 0 -23 -31 -78 -63 -113 l-20 -23 -23 25 c-13 14 -31 25 -42 25 -44 0 -57
-58 -20 -84 51 -36 112 -6 161 77 14 23 62 130 106 237 51 121 92 204 107 218
30 26 64 28 93 5 21 -18 21 -23 19 -263 l-3 -245 -32 -10 c-18 -5 -33 -15 -33
-22 0 -10 28 -13 115 -13 96 0 115 3 115 15 0 8 -7 15 -15 15 -8 0 -26 5 -40
12 -24 11 -25 15 -25 89 l0 78 28 -15 c54 -28 147 -10 200 39 92 86 86 267
-12 342 -52 40 -108 43 -168 11 l-48 -25 0 26 c0 26 0 26 -61 19 -34 -3 -104
-6 -155 -6 -74 0 -94 -3 -94 -14 0 -8 11 -17 25 -20 14 -4 28 -12 31 -20 3 -7
-14 -57 -37 -112 -22 -54 -43 -107 -46 -116 -3 -10 -8 -18 -12 -18 -4 0 -30
56 -58 125 l-52 126 25 11 c13 6 24 17 24 25 0 10 -22 13 -95 13 -65 0 -95 -4
-95 -12 0 -6 -8 -4 -20 7 -25 23 -78 14 -119 -21 l-30 -25 -3 28 c-3 24 -7 28
-38 29 -19 1 -52 -1 -72 -3z m1022 -58 c39 -20 61 -65 67 -134 10 -110 -30
-188 -103 -198 -33 -4 -45 -1 -72 22 l-32 27 0 128 c0 127 0 129 26 149 32 25
74 27 114 6z"/>
</g>
</svg>
