<?xml version="1.0" encoding="utf-8"?>
<!-- Generator: Adobe Illustrator 23.0.1, SVG Export Plug-In . SVG Version: 6.00 Build 0)  -->
<svg version="1.1" id="Layer_1" xmlns="http://www.w3.org/2000/svg" xmlns:xlink="http://www.w3.org/1999/xlink" x="0px" y="0px"
	 viewBox="0 0 1000 1000" style="enable-background:new 0 0 1000 1000;" xml:space="preserve">
<style type="text/css">
	.st0{enable-background:new    ;}
	.st1{fill:#009789;}
	.st2{fill:#024E41;}
	.st3{fill:#FFFFFF;}
</style>
<g id="g902" transform="matrix(0.12722472,0,0,0.12722472,9.304083,41.267728)">
	<g id="logo__item--business" transform="translate(0,-240)">
		<g id="g30" transform="matrix(2.7357981,0,0,2.7357981,119.60156,93.786941)">
			<g id="g4" class="st0">
				<path id="path2" class="st1" d="M754,1217.3c-9.9-9.9-14.9-22.1-14.9-36.5c0-14.4,5-26.6,14.9-36.5c9.9-9.9,22.1-14.9,36.5-14.9
					c14.4,0,26.6,5,36.5,14.9c9.9,9.9,14.9,22.1,14.9,36.5c0,14.4-5,26.6-14.9,36.5c-9.9,9.9-22.1,14.9-36.5,14.9
					C776.1,1232.2,763.9,1227.3,754,1217.3z M834.3,1571.6h-87.6v-314.2h87.6V1571.6z"/>
			</g>
			<g id="g8" class="st0">
				<path id="path6" class="st1" d="M893.8,1163.3h165.3v408.3h-87.6V1241h-77.7L893.8,1163.3L893.8,1163.3z"/>
			</g>
			<g id="g12" class="st0">
				<path id="path10" class="st1" d="M1197.3,1186.1c27.1-21.4,60.8-32.1,101.3-32.1c40.5,0,74.2,10.7,101,32.1
					c26.9,21.4,40.3,47.8,40.3,79.1c0,31.3-12.1,58.3-36.2,80.9c33.9,26.1,50.8,60.4,50.8,102.8c0,35.8-14.4,66-43.2,90.5
					c-28.8,24.5-66.4,36.8-112.7,36.8c-46.3,0-83.9-12.3-112.7-36.8s-43.2-54.7-43.2-90.5c0-42.4,16.9-76.7,50.8-102.8
					c-24.5-23-36.8-50-36.8-81.2C1156.7,1233.8,1170.2,1207.5,1197.3,1186.1z M1254.2,1486.6c13.6,9.2,28.4,13.7,44.4,13.7
					c16,0,30.8-4.6,44.4-13.7c13.6-9.1,20.4-22.5,20.4-40s-6.6-31-19.9-40.3c-13.2-9.3-28.2-14-45-14c-16.7,0-31.7,4.7-45,14
					c-13.2,9.3-19.9,22.8-19.9,40.3S1240.6,1477.4,1254.2,1486.6z M1259.8,1308.1c11.1,9.3,24,14,38.8,14c14.8,0,27.7-4.7,38.8-14
					c11.1-9.3,16.6-20.9,16.6-34.8c0-13.8-5.5-25.4-16.4-34.8c-10.9-9.3-23.9-14-39.1-14s-28.2,4.7-39.1,14
					c-10.9,9.3-16.4,20.9-16.4,34.8C1243.1,1287.2,1248.7,1298.8,1259.8,1308.1z"/>
			</g>
			<g id="g16" class="st0">
				<path id="path14" class="st1" d="M1615.1,1396.3v175.2h-87.6v-314.2h87.6v35c26.5-26.9,56.3-40.3,89.4-40.3
					c33.1,0,60.8,11.7,83.2,35c22.4,23.4,33.6,54.5,33.6,93.5v191h-87.6V1394c0-48.3-17.7-72.4-53.2-72.4c-17.5,0-32.8,6.3-45.9,19
					C1621.7,1353.2,1615.1,1371.8,1615.1,1396.3z"/>
			</g>
			<g id="g20" class="st0">
				<path id="path18" class="st1" d="M2172.9,1526c-35.4,33.5-77,50.2-124.7,50.2c-47.7,0-87.1-14.7-118.3-44.1
					c-31.2-29.4-46.7-68.8-46.7-118.3c0-49.4,15.9-88.8,47.6-118c31.7-29.2,69.2-43.8,112.4-43.8c43.2,0,79.9,13.1,110.1,39.1
					c30.2,26.1,45.3,61.9,45.3,107.5v46.7h-228.9c2.7,17.1,11.7,31.2,26.9,42.1c15.2,10.9,32.3,16.4,51.4,16.4
					c30.8,0,56.1-10.3,75.9-31L2172.9,1526z M2088.8,1339.7c-12.1-10.1-26.8-15.2-44.1-15.2c-17.3,0-33.2,5.3-47.6,15.8
					c-14.4,10.5-22.8,24.7-25.1,42.6h137.8C2107.9,1364.2,2100.9,1349.8,2088.8,1339.7z"/>
			</g>
			<g id="g24" class="st0">
				<path id="path22" class="st1" d="M2329.4,1257.3l53.7,84.1l55.5-84.1h102.8l-108,153.6l112.1,160.6H2441l-61.3-86.4l-59.6,86.4
					h-101l109.8-160l-104-154.2H2329.4z"/>
			</g>
			<g id="g28" class="st0">
				<path id="path26" class="st1" d="M2699.1,1320.4v140.8c0,12.1,3.1,21.5,9.3,28.3c6.2,6.8,13.6,10.2,22.2,10.2
					c16.4,0,30.2-7.4,41.5-22.2l32.7,61.3c-27.3,24.9-56,37.4-86.1,37.4c-30.2,0-55.7-9.9-76.5-29.8c-20.8-19.9-31.2-46.9-31.2-81.2
					v-144.8h-36.8v-63.1h36.8v-94h88.2v94h75.9v63.1H2699.1z"/>
			</g>
		</g>
	</g>
	<g id="logo__item--logo_0" transform="translate(0,-240)">
		<g id="g57" transform="matrix(1.5849745,0,0,1.5849745,-33.159906,-17)">
			<g id="g55">
				<path id="path33" class="st1" d="M616.4,1889.3v260.1L908.7,2900c0,0,89.2,183.3-166,228H160.6c0,0-237.8-24.8-180.8-213.1
					l307.1-765.4v-260.1H616.4z"/>
				<g id="g39">
					<g id="g37">
						<path id="path35" class="st2" d="M622.6,1859.1H272c-28.4,0-51.5-25.3-51.5-56.5c0-31.2,23.1-56.5,51.5-56.5h350.6
							c28.5,0,51.6,25.3,51.6,56.5C674.2,1833.8,651.1,1859.1,622.6,1859.1z"/>
					</g>
				</g>
				<path id="path41" class="st3" d="M530.1,2314c37.6,0,68.3,36.8,68.3,82.3c0,45.3-30.7,82.2-68.3,82.2
					c-37.7,0-68.3-36.8-68.3-82.2C461.8,2350.7,492.4,2314,530.1,2314z"/>
				<ellipse id="ellipse43" class="st3" cx="320.5" cy="2458" rx="57.6" ry="69.4"/>
				<path id="path45" class="st2" d="M642.4,2132.2v-123.7c0,0,156.9-34.6,235.2,147.9C877.7,2156.3,755.5,2245.3,642.4,2132.2z"/>
				<path id="path47" class="st2" d="M258.2,2132.2v-123.7c0,0-156.9-34.6-235.2,147.9C23,2156.3,145.1,2245.3,258.2,2132.2z"/>
				<path id="path49" class="st3" d="M736.7,2644c-255.1-79.1-469.5-36.6-574.3-4.5L56.7,2893.9
					c-47.6,151.9,151.1,171.8,151.1,171.8H694c213.1-36,138.6-183.8,138.6-183.8L736.7,2644z"/>
				<path id="path51" class="st2" d="M369.1,2738.6c0,27.4-36.9,49.7-82.3,49.7s-82.2-22.3-82.2-49.7c0-27.5,36.8-49.8,82.2-49.8
					C332.3,2688.8,369.1,2711,369.1,2738.6z"/>
				<path id="path53" class="st2" d="M661.7,2738.6c0,27.4-36.9,49.7-82.2,49.7c-45.5,0-82.3-22.3-82.3-49.7
					c0-27.5,36.7-49.8,82.3-49.8C624.9,2688.8,661.7,2711,661.7,2738.6z"/>
			</g>
		</g>
	</g>
</g>
</svg>
