<?xml version="1.0" encoding="UTF-8"?>
<svg xmlns="http://www.w3.org/2000/svg" xmlns:xlink="http://www.w3.org/1999/xlink" width="349px" height="100px" viewBox="0 0 348 100" version="1.1">
<g id="surface1">
<path style=" stroke:none;fill-rule:nonzero;fill:rgb(0%,0%,0%);fill-opacity:1;" d="M 28.910156 27.929688 C 26.074219 28.527344 23.191406 30.082031 21.222656 32.097656 C 20.261719 33.105469 19.304688 33.882812 19.121094 33.882812 C 18.9375 33.882812 18.753906 32.738281 18.753906 31.363281 L 18.753906 28.847656 L 12.351562 28.847656 L 12.351562 71.886719 L 19.621094 71.886719 L 19.761719 57.097656 L 19.898438 42.351562 L 21.269531 39.605469 C 23.191406 35.761719 25.523438 34.203125 29.640625 33.972656 C 33.34375 33.792969 35.402344 34.707031 36.820312 37.089844 C 37.691406 38.597656 37.738281 39.652344 37.964844 55.175781 L 38.195312 71.65625 L 41.761719 71.792969 L 45.285156 71.933594 L 45.285156 57.785156 C 45.285156 42.03125 45.558594 40.246094 48.164062 37.226562 C 51.960938 32.921875 59.328125 32.691406 62.4375 36.8125 C 63.304688 38.003906 63.351562 38.875 63.582031 54.851562 L 63.808594 71.65625 L 67.378906 71.792969 L 70.898438 71.933594 L 70.898438 55.953125 C 70.898438 47.023438 70.671875 38.875 70.441406 37.5 C 69.433594 32.28125 65.914062 28.847656 60.5625 27.882812 C 55.253906 26.96875 50.679688 28.433594 46.65625 32.464844 C 45.285156 33.792969 44.09375 34.707031 44.003906 34.433594 C 43.910156 34.15625 43.269531 33.105469 42.539062 32.144531 C 40.113281 28.753906 33.984375 26.878906 28.910156 27.929688 Z M 28.910156 27.929688 "/>
<path style=" stroke:none;fill-rule:nonzero;fill:rgb(0%,0%,0%);fill-opacity:1;" d="M 87.410156 27.976562 C 81.417969 28.984375 75.199219 33.835938 73.277344 39.058594 C 70.992188 45.148438 70.761719 54.210938 72.730469 59.890625 C 76.066406 69.367188 85.308594 74.40625 95.691406 72.390625 C 105.984375 70.375 111.609375 62.363281 111.609375 49.863281 C 111.5625 37.910156 105.34375 29.625 95.140625 27.976562 C 91.757812 27.425781 90.84375 27.425781 87.410156 27.976562 Z M 96.835938 34.707031 C 99.304688 35.988281 102.050781 39.195312 103.054688 41.941406 C 104.746094 46.75 104.519531 55.21875 102.507812 59.796875 C 102.050781 60.804688 100.90625 62.453125 99.945312 63.414062 C 97.476562 65.84375 95.050781 66.851562 91.484375 66.851562 C 86.3125 66.851562 82.472656 64.332031 80.230469 59.433594 C 78.949219 56.683594 78.902344 56.226562 78.902344 50.136719 C 78.902344 44.183594 78.996094 43.542969 80.09375 41.207031 C 81.832031 37.5 84.53125 35.074219 88.28125 33.835938 C 90.203125 33.195312 94.777344 33.699219 96.835938 34.707031 Z M 96.835938 34.707031 "/>
<path style=" stroke:none;fill-rule:nonzero;fill:rgb(0%,0%,0%);fill-opacity:1;" d="M 129.035156 27.929688 C 126.109375 28.570312 123.136719 30.128906 121.121094 32.144531 C 120.164062 33.105469 119.292969 33.882812 119.15625 33.882812 C 119.019531 33.882812 118.925781 32.738281 118.925781 31.363281 L 118.925781 28.847656 L 112.523438 28.847656 L 112.523438 71.886719 L 119.292969 71.886719 L 119.476562 57.554688 C 119.660156 45.742188 119.796875 42.855469 120.4375 40.886719 C 123 33.105469 134.984375 31.179688 138.960938 37.910156 L 140.195312 40.0625 L 140.335938 55.953125 L 140.515625 71.886719 L 147.332031 71.886719 L 147.195312 54.578125 L 147.058594 37.316406 L 145.867188 34.753906 C 144.496094 31.867188 142.53125 30.128906 139.097656 28.847656 C 136.355469 27.792969 131.78125 27.382812 129.035156 27.929688 Z M 129.035156 27.929688 "/>
<path style=" stroke:none;fill-rule:nonzero;fill:rgb(0%,0%,0%);fill-opacity:1;" d="M 162.839844 27.929688 C 153.828125 29.851562 148.203125 38.234375 148.203125 49.910156 C 148.203125 57.097656 150.03125 62.226562 154.195312 66.621094 C 157.578125 70.191406 161.007812 71.613281 166.269531 71.613281 C 170.890625 71.65625 173.3125 70.832031 176.195312 68.269531 C 178.804688 65.980469 179.03125 66.207031 178.664062 71.199219 C 178.527344 73.582031 178.164062 76.097656 177.886719 76.785156 C 176.972656 79.167969 175.050781 81.136719 172.582031 82.28125 C 170.339844 83.332031 169.609375 83.425781 165.765625 83.242188 C 161.925781 83.058594 161.285156 82.921875 159.546875 81.683594 C 158.171875 80.722656 157.394531 79.714844 156.9375 78.433594 C 156.296875 76.601562 156.207031 76.558594 153.738281 76.234375 C 152.320312 76.097656 150.808594 75.871094 150.398438 75.734375 C 149.34375 75.410156 149.300781 77.199219 150.261719 80.496094 C 152.226562 87.089844 161.511719 90.707031 171.757812 88.78125 C 177.613281 87.730469 182.417969 83.972656 184.382812 78.984375 C 185.480469 76.234375 185.480469 76.234375 185.617188 52.519531 L 185.753906 28.847656 L 179.304688 28.847656 L 179.304688 33.515625 L 177.429688 31.824219 C 173.679688 28.433594 167.871094 26.921875 162.839844 27.929688 Z M 172.671875 34.980469 C 176.699219 37.363281 178.804688 41.484375 179.167969 47.847656 C 179.441406 52.5625 178.847656 56.867188 177.476562 59.523438 C 176.242188 61.949219 173.496094 64.421875 171.164062 65.203125 C 164.484375 67.492188 158.171875 63.828125 156.160156 56.5 C 155.0625 52.382812 155.429688 44.140625 156.847656 40.933594 C 158.082031 38.09375 161.054688 35.074219 163.523438 34.113281 C 166.179688 33.105469 170.113281 33.515625 172.671875 34.980469 Z M 172.671875 34.980469 "/>
<path style=" stroke:none;fill-rule:nonzero;fill:rgb(0%,0%,0%);fill-opacity:1;" d="M 202.679688 27.976562 C 196.6875 28.984375 190.46875 33.835938 188.546875 39.058594 C 186.257812 45.148438 186.03125 54.210938 187.996094 59.890625 C 190.648438 67.492188 196.640625 72.070312 204.785156 72.664062 C 213.566406 73.351562 221.433594 69.09375 224.679688 61.949219 L 226.054688 58.929688 L 227.105469 61.585938 C 230.492188 69.917969 239.960938 74.359375 249.839844 72.296875 C 255.007812 71.199219 260.449219 67.308594 262.601562 63.09375 L 263.605469 61.125 L 264.109375 62.546875 C 264.980469 65.0625 267.222656 68.132812 269.140625 69.503906 C 272.480469 71.886719 274.949219 72.527344 281.308594 72.527344 C 288.078125 72.527344 290.824219 71.703125 294.34375 68.589844 C 296.496094 66.710938 298.644531 63.003906 298.691406 61.125 C 298.738281 60.578125 299.285156 61.265625 300.109375 62.910156 C 303.355469 69.183594 309.851562 72.800781 317.902344 72.800781 C 326.042969 72.800781 332.3125 69.140625 335.46875 62.5 C 336.105469 61.082031 336.65625 59.753906 336.65625 59.570312 C 336.65625 59.113281 335.46875 58.835938 331.808594 58.378906 C 329.519531 58.105469 329.476562 58.105469 328.878906 59.523438 C 326.960938 64.195312 322.980469 66.851562 317.949219 66.851562 C 310.949219 66.851562 305.644531 61.539062 305.003906 54.03125 L 304.867188 52.425781 L 321.011719 52.289062 L 337.113281 52.199219 L 337.113281 49.542969 C 337.066406 43.039062 334.550781 36.355469 330.710938 32.785156 C 321.378906 24.039062 305.460938 26.878906 300.015625 38.277344 C 298.417969 41.574219 297.320312 46.382812 297.320312 50.089844 L 297.320312 52.746094 L 295.671875 51.28125 C 293.429688 49.359375 291.648438 48.625 282.726562 46.0625 C 278.609375 44.871094 274.632812 43.589844 273.945312 43.269531 C 269.554688 40.980469 270.695312 35.667969 275.957031 34.113281 C 282.222656 32.234375 288.71875 34.570312 289.910156 39.101562 C 290.320312 40.660156 290.867188 40.75 295.304688 40.0625 L 297.226562 39.789062 L 296.816406 37.957031 C 295.488281 32.050781 291.371094 28.9375 283.640625 27.882812 C 273.441406 26.511719 265.4375 31.136719 264.523438 38.917969 L 264.246094 41.117188 L 262.691406 37.957031 C 258.027344 28.617188 245.90625 24.910156 235.75 29.761719 C 232.183594 31.5 228.15625 35.667969 227.015625 38.917969 C 226.558594 40.203125 226.097656 41.207031 225.960938 41.207031 C 225.824219 41.207031 225.230469 40.019531 224.589844 38.554688 C 222.347656 33.242188 216.585938 28.984375 210.363281 27.976562 C 207.023438 27.425781 206.109375 27.425781 202.679688 27.976562 Z M 212.101562 34.707031 C 214.664062 36.035156 217.410156 39.332031 218.367188 42.214844 C 220.015625 47.34375 219.742188 55.265625 217.773438 59.796875 C 217.316406 60.804688 216.171875 62.453125 215.214844 63.414062 C 212.742188 65.84375 210.320312 66.851562 206.75 66.851562 C 201.582031 66.851562 197.738281 64.332031 195.5 59.433594 C 194.21875 56.683594 194.171875 56.226562 194.171875 50.136719 C 194.171875 44.183594 194.261719 43.542969 195.359375 41.207031 C 197.097656 37.5 199.796875 35.074219 203.550781 33.835938 C 205.46875 33.195312 210.042969 33.699219 212.101562 34.707031 Z M 250.523438 34.707031 C 253.085938 36.035156 255.832031 39.332031 256.792969 42.214844 C 258.4375 47.34375 258.164062 55.265625 256.195312 59.796875 C 255.738281 60.804688 254.597656 62.453125 253.636719 63.414062 C 251.164062 65.84375 248.742188 66.851562 245.171875 66.851562 C 240.003906 66.851562 236.164062 64.332031 233.921875 59.433594 C 232.640625 56.683594 232.59375 56.226562 232.59375 50.136719 C 232.59375 44.183594 232.6875 43.542969 233.785156 41.207031 C 235.523438 37.5 238.222656 35.074219 241.972656 33.835938 C 243.894531 33.195312 248.46875 33.699219 250.523438 34.707031 Z M 322.703125 34.707031 C 326.273438 36.539062 328.742188 40.019531 329.199219 44 L 329.476562 46.246094 L 305.050781 46.246094 L 305.367188 44.503906 C 306.285156 39.285156 309.53125 35.347656 314.242188 33.835938 C 316.117188 33.195312 320.738281 33.699219 322.703125 34.707031 Z M 269.917969 49.40625 C 271.246094 50.136719 274.722656 51.417969 277.605469 52.199219 C 285.882812 54.441406 288.535156 55.402344 290 56.640625 C 291.1875 57.601562 291.371094 58.105469 291.371094 59.980469 C 291.371094 62.636719 289.910156 64.699219 287.027344 65.980469 C 284.648438 67.078125 278.792969 67.171875 276.367188 66.164062 C 273.851562 65.0625 271.429688 62.5 270.789062 60.164062 L 270.195312 58.105469 L 268.089844 58.378906 C 266.945312 58.5625 265.621094 58.792969 265.164062 58.929688 C 264.386719 59.113281 264.339844 58.972656 264.703125 56.914062 C 264.886719 55.722656 265.070312 52.335938 265.070312 49.40625 L 265.070312 44.140625 L 266.304688 46.0625 C 267.082031 47.296875 268.457031 48.535156 269.917969 49.40625 Z M 269.917969 49.40625 "/>
</g>
</svg>
