<?xml version="1.0" encoding="UTF-8"?>
<svg xmlns="http://www.w3.org/2000/svg" xmlns:xlink="http://www.w3.org/1999/xlink" width="391px" height="120px" viewBox="0 0 390 120" version="1.1">
<g id="surface1">
<path style=" stroke:none;fill-rule:nonzero;fill:rgb(0%,0%,0%);fill-opacity:1;" d="M 247.59375 25.542969 C 247.328125 25.667969 247.042969 25.96875 246.867188 26.320312 C 246.734375 26.574219 246.386719 27.5625 245.398438 30.457031 C 245.066406 31.417969 244.75 32.292969 244.6875 32.398438 C 244.398438 32.863281 243.890625 33.179688 243.355469 33.234375 C 243.207031 33.246094 242.644531 33.296875 242.101562 33.34375 C 239.878906 33.546875 237.601562 33.851562 235.800781 34.183594 C 234.785156 34.375 232.703125 34.75 231.179688 35.023438 C 225.089844 36.113281 223.957031 36.332031 223.664062 36.464844 C 223.070312 36.738281 222.808594 37.203125 222.8125 38 C 222.8125 38.574219 222.945312 39.074219 223.257812 39.714844 C 223.570312 40.347656 224.691406 41.867188 224.980469 42.046875 C 225.445312 42.335938 226.058594 42.359375 226.929688 42.125 C 227.84375 41.882812 235.980469 40.09375 237.191406 39.867188 C 238.578125 39.605469 239.777344 39.425781 240.457031 39.367188 C 240.691406 39.351562 241.078125 39.292969 241.316406 39.246094 C 242.257812 39.042969 242.476562 39.136719 242.476562 39.738281 C 242.472656 40.476562 242.257812 41.664062 241.132812 47.246094 C 238.328125 61.101562 237.414062 66.375 236.675781 73.117188 C 236.078125 78.492188 235.757812 84.773438 235.941406 87.28125 C 236.039062 88.582031 236.339844 91.261719 236.4375 91.703125 C 236.847656 93.480469 238.449219 94.289062 240.582031 93.777344 C 241.601562 93.535156 241.847656 93.390625 241.964844 92.964844 C 242.039062 92.683594 241.953125 91.84375 241.777344 91.207031 C 241.667969 90.824219 241.667969 90.71875 241.722656 89.871094 C 241.753906 89.375 241.808594 88.234375 241.84375 87.339844 C 242.003906 82.878906 242.113281 81.699219 242.652344 78.324219 C 244.28125 68.152344 246.53125 57.78125 250.375 42.785156 C 251.292969 39.207031 251.558594 38.480469 252.066406 38.140625 C 252.355469 37.941406 252.59375 37.898438 253.578125 37.832031 C 254.066406 37.796875 255.929688 37.652344 257.710938 37.515625 C 262.476562 37.132812 265.886719 36.878906 269.296875 36.640625 C 273.160156 36.367188 275.753906 36.328125 279.339844 36.464844 C 280.667969 36.523438 282.09375 36.570312 282.507812 36.574219 C 283.308594 36.585938 283.847656 36.5 283.90625 36.339844 C 283.949219 36.214844 283.816406 35.398438 283.738281 35.300781 C 283.652344 35.191406 282.382812 34.589844 281.839844 34.390625 C 280.753906 33.996094 279.199219 33.851562 275.195312 33.785156 C 273.042969 33.75 272.964844 33.742188 272.726562 33.617188 C 272.425781 33.457031 272.195312 33.121094 272.109375 32.71875 C 272.042969 32.449219 272.007812 32.40625 271.820312 32.304688 C 271.605469 32.203125 271.5625 32.203125 270.03125 32.304688 C 268.65625 32.398438 267.597656 32.410156 261.554688 32.414062 C 257.753906 32.421875 254.507812 32.40625 254.332031 32.375 C 253.886719 32.3125 253.75 32.167969 253.75 31.753906 C 253.75 31.582031 253.855469 31.007812 253.980469 30.480469 C 254.277344 29.234375 254.34375 28.753906 254.269531 28.414062 C 254.136719 27.816406 253.898438 27.59375 252.808594 27.011719 C 251.964844 26.558594 251.484375 26.378906 250.195312 26.019531 C 249.722656 25.886719 249.085938 25.699219 248.789062 25.601562 C 248.175781 25.410156 247.917969 25.394531 247.59375 25.542969 Z M 247.59375 25.542969 "/>
<path style=" stroke:none;fill-rule:nonzero;fill:rgb(0%,0%,0%);fill-opacity:1;" d="M 313.257812 41.175781 C 312.203125 41.214844 310.609375 41.382812 309.960938 41.519531 C 306.898438 42.160156 303.480469 43.269531 299.789062 44.828125 C 299.152344 45.09375 298.527344 45.324219 298.402344 45.34375 C 298.078125 45.386719 297.828125 45.203125 297.570312 44.722656 C 297.273438 44.175781 297.078125 43.941406 296.765625 43.761719 C 296.214844 43.4375 295.359375 43.617188 294.875 44.160156 C 294.558594 44.507812 294.257812 45.191406 293.667969 46.890625 C 293.527344 47.300781 293.355469 47.699219 293.28125 47.773438 C 293.183594 47.878906 292.402344 48.261719 292.285156 48.261719 C 292.269531 48.261719 292.210938 48.09375 292.160156 47.890625 C 292.015625 47.351562 292.0625 46.65625 292.304688 45.914062 C 292.453125 45.453125 292.488281 45.238281 292.488281 44.835938 C 292.496094 43.679688 292.078125 43.191406 290.972656 43.058594 C 290.1875 42.964844 289.789062 43.132812 289.507812 43.695312 C 289.078125 44.554688 288.285156 46.992188 287.644531 49.421875 C 287.4375 50.195312 287.195312 50.992188 287.09375 51.1875 C 286.804688 51.785156 286.226562 52.484375 284.972656 53.777344 C 282.394531 56.441406 280.800781 58.355469 280.28125 59.414062 C 279.921875 60.152344 279.800781 60.691406 279.835938 61.382812 C 279.898438 62.601562 280.4375 63.476562 281.707031 64.433594 C 282.382812 64.941406 282.726562 65.296875 282.929688 65.699219 C 283.140625 66.140625 283.175781 66.921875 282.996094 67.554688 C 282.933594 67.792969 282.8125 68.324219 282.730469 68.742188 C 282.65625 69.152344 282.28125 71.058594 281.898438 72.972656 C 280.894531 78.03125 280.308594 81.308594 279.796875 84.761719 C 279.285156 88.167969 278.777344 92.875 278.777344 94.210938 C 278.777344 95.792969 279.585938 96.644531 281.175781 96.738281 C 281.644531 96.761719 281.71875 96.753906 281.957031 96.628906 C 282.257812 96.464844 282.496094 96.140625 282.738281 95.574219 C 282.828125 95.359375 282.996094 95.085938 283.113281 94.972656 L 283.328125 94.757812 L 283.390625 94.988281 C 283.5 95.386719 284.296875 96.40625 284.5 96.40625 C 284.703125 96.40625 285.296875 96.046875 285.609375 95.746094 C 285.972656 95.394531 286.027344 95.230469 286.089844 94.378906 C 286.140625 93.632812 286.550781 91.488281 287.5 86.992188 C 288.199219 83.679688 288.617188 81.957031 289.261719 79.691406 C 289.402344 79.210938 289.546875 78.691406 289.585938 78.535156 C 289.679688 78.128906 289.785156 77.984375 289.984375 77.984375 C 290.199219 77.984375 290.257812 78.03125 293.160156 80.574219 C 294.789062 82 299.761719 86.042969 303.574219 89.042969 C 305.417969 90.5 305.753906 90.699219 306.320312 90.695312 C 306.765625 90.695312 307.125 90.539062 307.523438 90.164062 C 307.914062 89.792969 308.125 89.6875 308.625 89.625 C 309.460938 89.511719 309.851562 89.21875 310.570312 88.164062 C 310.851562 87.746094 311.4375 87.136719 311.550781 87.136719 C 311.582031 87.136719 311.558594 87.015625 311.503906 86.867188 C 311.324219 86.375 310.902344 85.996094 309.035156 84.640625 C 308.613281 84.332031 306.714844 82.722656 304.671875 80.945312 C 302.683594 79.207031 299.996094 76.871094 298.691406 75.746094 C 297.390625 74.625 296.246094 73.59375 296.152344 73.457031 C 295.921875 73.128906 295.886719 72.734375 296.0625 72.457031 C 296.25 72.136719 296.804688 71.777344 297.917969 71.238281 C 298.472656 70.972656 299.378906 70.53125 299.933594 70.265625 C 301.511719 69.5 306.5 66.472656 309.324219 64.554688 C 313.148438 61.964844 315.878906 59.796875 318.949219 56.921875 C 320.734375 55.25 321.886719 53.910156 322.996094 52.230469 C 323.65625 51.226562 323.945312 50.566406 324.089844 49.746094 C 324.214844 49.039062 324.113281 48.34375 323.789062 47.652344 C 323.40625 46.859375 322.632812 46.214844 321.683594 45.921875 C 320.585938 45.574219 320.335938 45.359375 320.023438 44.460938 C 319.199219 42.097656 316.980469 41.019531 313.257812 41.175781 Z M 315.324219 43.800781 C 315.757812 43.863281 316.167969 43.941406 316.234375 43.972656 C 316.425781 44.078125 316.378906 44.328125 316.09375 44.710938 C 315.558594 45.421875 315.054688 45.78125 314.324219 45.972656 C 313.828125 46.101562 307.863281 48.082031 307.667969 48.179688 C 307.503906 48.261719 306.667969 49.175781 306.714844 49.222656 C 306.726562 49.234375 307.359375 49.050781 308.117188 48.8125 C 310.78125 47.964844 314.210938 46.988281 314.503906 46.988281 C 314.585938 46.988281 314.738281 47.003906 314.835938 47.023438 L 315.015625 47.058594 L 314.921875 47.300781 C 314.871094 47.425781 314.78125 47.613281 314.726562 47.699219 C 314.601562 47.902344 312.464844 50.09375 311.957031 50.527344 C 311.449219 50.96875 301.160156 58.871094 296.636719 62.292969 C 295.476562 63.175781 294.464844 63.964844 294.382812 64.050781 C 294.246094 64.199219 293.851562 64.425781 293.605469 64.507812 C 293.496094 64.542969 293.488281 64.519531 293.503906 63.953125 C 293.523438 63.402344 293.582031 63.15625 294.332031 60.371094 C 294.777344 58.730469 295.359375 56.535156 295.628906 55.488281 C 296.171875 53.371094 296.285156 53.089844 296.8125 52.550781 C 297.152344 52.203125 297.558594 51.941406 298.257812 51.628906 C 299.460938 51.089844 303.292969 49.113281 303.949219 48.695312 C 304.113281 48.597656 304.488281 48.308594 304.789062 48.054688 C 305.476562 47.480469 305.835938 47.253906 306.269531 47.101562 C 306.882812 46.890625 308.417969 46.523438 308.703125 46.523438 C 309.015625 46.523438 309.660156 46.339844 310.203125 46.09375 C 310.476562 45.972656 310.585938 45.886719 310.648438 45.742188 C 310.777344 45.476562 310.765625 45.445312 310.5625 45.371094 C 310.269531 45.265625 310.160156 45.289062 308.925781 45.65625 C 307.367188 46.113281 303.742188 47.144531 301.441406 47.773438 L 299.5625 48.289062 L 299.257812 48.574219 L 298.949219 48.851562 L 298.949219 48.660156 C 298.949219 48.378906 299.160156 48.007812 299.40625 47.839844 C 299.632812 47.6875 300.101562 47.507812 300.257812 47.507812 C 300.308594 47.507812 301.285156 47.144531 302.4375 46.703125 C 307.441406 44.773438 309.222656 44.242188 312.1875 43.773438 C 313.238281 43.605469 314.03125 43.617188 315.324219 43.800781 Z M 321.425781 47.097656 C 321.742188 47.257812 322.066406 47.605469 322.222656 47.9375 C 322.574219 48.691406 322.300781 49.589844 321.234375 51.1875 C 320.285156 52.613281 319.214844 53.703125 316.726562 55.765625 C 311.945312 59.722656 311.042969 60.441406 310.585938 60.667969 C 310.382812 60.765625 310.199219 60.835938 310.171875 60.824219 C 310.058594 60.78125 312.476562 58.210938 315.390625 55.273438 C 317.042969 53.597656 318.503906 52.078125 318.625 51.894531 C 318.933594 51.449219 318.980469 51.03125 318.757812 50.699219 L 318.609375 50.476562 L 318.824219 50.382812 C 318.9375 50.332031 319.101562 50.230469 319.179688 50.171875 C 319.300781 50.082031 319.308594 50.058594 319.222656 50.058594 C 319.128906 50.058594 319.136719 50.035156 319.269531 49.808594 C 319.347656 49.675781 319.5 49.410156 319.597656 49.21875 C 319.695312 49.027344 319.792969 48.863281 319.824219 48.851562 C 319.851562 48.839844 319.914062 48.695312 319.960938 48.527344 C 320.082031 48.121094 320.011719 47.9375 319.703125 47.808594 C 319.574219 47.757812 319.46875 47.699219 319.46875 47.683594 C 319.46875 47.640625 320.324219 47.125 320.511719 47.050781 C 320.753906 46.957031 321.191406 46.976562 321.425781 47.097656 Z M 319.632812 48.308594 L 319.828125 48.667969 L 319.417969 48.667969 C 319.191406 48.667969 319.007812 48.648438 319.007812 48.632812 C 319.007812 48.515625 319.324219 47.914062 319.371094 47.929688 C 319.40625 47.941406 319.523438 48.109375 319.632812 48.308594 Z M 318.65625 49.519531 C 318.5625 49.867188 318.492188 50.21875 318.488281 50.308594 C 318.488281 50.46875 318.480469 50.476562 318.246094 50.433594 C 317.972656 50.394531 317.734375 50.265625 317.734375 50.167969 C 317.734375 50.035156 317.886719 49.832031 318.332031 49.375 C 318.589844 49.113281 318.804688 48.898438 318.8125 48.898438 C 318.8125 48.898438 318.742188 49.175781 318.65625 49.519531 Z M 290.777344 57.515625 C 290.816406 57.730469 290.789062 57.863281 289.257812 64.164062 C 288.371094 67.808594 288.351562 67.878906 288.148438 68.117188 C 287.949219 68.34375 287.9375 68.347656 287.894531 68.234375 C 287.8125 68.035156 287.882812 67.527344 288.199219 65.902344 C 288.570312 64.03125 288.894531 62.550781 289.453125 60.195312 C 289.691406 59.195312 289.917969 58.191406 289.949219 57.972656 C 290.007812 57.589844 290.027344 57.566406 290.304688 57.359375 C 290.5625 57.160156 290.605469 57.148438 290.667969 57.230469 C 290.707031 57.277344 290.761719 57.410156 290.777344 57.515625 Z M 286.234375 76.710938 C 286.234375 77.015625 286.222656 77.058594 286.117188 77.058594 C 286.027344 77.058594 286.003906 77.015625 286.003906 76.855469 C 286.003906 76.679688 286.136719 76.363281 286.210938 76.363281 C 286.222656 76.363281 286.234375 76.519531 286.234375 76.710938 Z M 285.742188 80.011719 C 285.761719 80.296875 285.753906 80.394531 285.71875 80.296875 C 285.695312 80.214844 285.65625 79.941406 285.640625 79.6875 C 285.609375 79.355469 285.617188 79.277344 285.65625 79.402344 C 285.683594 79.496094 285.726562 79.773438 285.742188 80.011719 Z M 285.714844 80.730469 C 285.714844 80.734375 285.683594 80.828125 285.652344 80.933594 C 285.617188 81.035156 285.511719 81.476562 285.425781 81.910156 L 285.261719 82.707031 L 285.113281 82.386719 C 284.921875 81.980469 284.90625 81.460938 285.078125 81.199219 C 285.230469 80.96875 285.714844 80.609375 285.714844 80.730469 Z M 285.0625 83.035156 C 284.996094 83.089844 284.929688 83.335938 284.847656 83.804688 C 284.777344 84.1875 284.695312 84.523438 284.671875 84.554688 C 284.605469 84.625 284.441406 84.488281 284.441406 84.363281 C 284.441406 84.308594 284.472656 84.234375 284.5 84.207031 C 284.535156 84.171875 284.597656 83.941406 284.644531 83.691406 C 284.738281 83.226562 284.886719 82.964844 285.074219 82.964844 C 285.140625 82.964844 285.140625 82.976562 285.0625 83.035156 Z M 284.367188 86.570312 C 284.351562 86.617188 284.332031 86.597656 284.332031 86.535156 C 284.328125 86.472656 284.34375 86.4375 284.363281 86.460938 C 284.378906 86.476562 284.382812 86.53125 284.367188 86.570312 Z M 284.09375 87.972656 C 284.027344 88.34375 283.941406 88.644531 283.910156 88.644531 C 283.875 88.644531 283.863281 88.539062 283.886719 88.367188 C 283.933594 88.042969 284.160156 87.242188 284.195312 87.277344 C 284.210938 87.289062 284.164062 87.601562 284.09375 87.972656 Z M 283.414062 92.59375 C 283.363281 92.648438 283.34375 92.617188 283.351562 92.460938 C 283.351562 92.277344 283.355469 92.269531 283.414062 92.398438 C 283.460938 92.496094 283.460938 92.550781 283.414062 92.59375 Z M 283.414062 92.59375 "/>
<path style=" stroke:none;fill-rule:nonzero;fill:rgb(0%,0%,0%);fill-opacity:1;" d="M 312.902344 44.996094 C 312.511719 45.195312 312.488281 45.238281 312.714844 45.277344 C 312.859375 45.300781 313.046875 45.261719 313.425781 45.117188 L 313.933594 44.917969 L 313.714844 44.882812 C 313.332031 44.820312 313.199219 44.835938 312.902344 44.996094 Z M 312.902344 44.996094 "/>
<path style=" stroke:none;fill-rule:nonzero;fill:rgb(0%,0%,0%);fill-opacity:1;" d="M 306.558594 49.289062 C 306.539062 49.308594 306.414062 49.34375 306.273438 49.367188 L 306.03125 49.402344 L 306.296875 49.414062 C 306.488281 49.421875 306.582031 49.398438 306.605469 49.332031 C 306.636719 49.242188 306.621094 49.222656 306.558594 49.289062 Z M 306.558594 49.289062 "/>
<path style=" stroke:none;fill-rule:nonzero;fill:rgb(0%,0%,0%);fill-opacity:1;" d="M 304.621094 49.804688 C 304.621094 49.867188 304.636719 49.882812 304.65625 49.835938 C 304.671875 49.796875 304.667969 49.746094 304.648438 49.726562 C 304.632812 49.703125 304.617188 49.738281 304.621094 49.804688 Z M 304.621094 49.804688 "/>
<path style=" stroke:none;fill-rule:nonzero;fill:rgb(0%,0%,0%);fill-opacity:1;" d="M 221.882812 46.546875 C 221.347656 46.742188 221.203125 47.050781 220.3125 49.75 C 219.363281 52.648438 219.203125 53.246094 218.726562 55.550781 C 216.679688 65.480469 215.445312 73.65625 214.878906 80.9375 C 214.628906 84.152344 214.605469 84.941406 214.636719 88.035156 C 214.671875 91.089844 214.714844 91.882812 214.90625 92.875 C 215.050781 93.621094 215.214844 94.027344 215.496094 94.34375 C 215.96875 94.890625 216.265625 94.964844 218.058594 95.011719 L 219.503906 95.046875 L 219.847656 95.230469 C 220.351562 95.492188 220.542969 95.515625 220.859375 95.351562 C 221.160156 95.195312 221.351562 94.984375 223.433594 92.4375 C 224.265625 91.417969 225.242188 90.242188 225.601562 89.832031 C 226.542969 88.75 229 86.316406 231.902344 83.585938 L 234.414062 81.214844 L 234.699219 80.671875 L 234.980469 80.121094 L 234.675781 79.808594 C 234.171875 79.300781 233.414062 78.96875 232.75 78.96875 C 232.484375 78.96875 232.449219 78.953125 232.234375 78.707031 C 231.957031 78.394531 231.75 78.273438 231.46875 78.273438 C 231.179688 78.273438 230.945312 78.40625 230.511719 78.828125 C 230.125 79.199219 225.761719 82.84375 223.234375 84.902344 C 221.855469 86.027344 221.667969 86.152344 221.269531 86.238281 L 221.074219 86.28125 L 221.109375 85.65625 C 221.144531 84.902344 221.546875 82.496094 222.183594 79.230469 C 222.4375 77.921875 222.988281 74.976562 223.402344 72.683594 C 224.953125 64.148438 226.300781 57.226562 226.757812 55.417969 C 226.882812 54.90625 227.265625 53.511719 227.59375 52.316406 C 227.925781 51.125 228.210938 50.011719 228.230469 49.84375 C 228.28125 49.433594 228.144531 48.964844 227.882812 48.671875 C 227.445312 48.1875 225.070312 47.132812 223.492188 46.722656 C 222.558594 46.476562 222.179688 46.4375 221.882812 46.546875 Z M 220.914062 91.464844 C 220.917969 91.570312 220.894531 91.65625 220.859375 91.65625 C 220.832031 91.65625 220.800781 91.519531 220.808594 91.351562 C 220.808594 91.128906 220.824219 91.078125 220.859375 91.164062 C 220.890625 91.226562 220.914062 91.367188 220.914062 91.464844 Z M 220.914062 91.464844 "/>
<path style=" stroke:none;fill-rule:nonzero;fill:rgb(0%,0%,0%);fill-opacity:1;" d="M 211.207031 49.964844 C 209.539062 50.324219 208.316406 51.332031 207.433594 53.105469 C 207.316406 53.332031 206.980469 54.136719 206.683594 54.902344 C 205.828125 57.0625 205.238281 58.300781 204.425781 59.648438 C 203.394531 61.355469 200.992188 65.09375 197.363281 70.65625 C 196.449219 72.058594 195.304688 73.816406 194.820312 74.566406 C 193.503906 76.609375 190.339844 81.414062 190.230469 81.542969 C 190.132812 81.65625 189.53125 82.058594 189.503906 82.027344 C 189.492188 82.015625 189.417969 81.855469 189.328125 81.664062 L 189.179688 81.316406 L 189.300781 79.835938 C 189.613281 76.015625 189.816406 74.300781 190.285156 71.488281 C 190.988281 67.289062 192.347656 61.777344 194.109375 55.96875 C 194.398438 55.023438 194.445312 54.914062 194.773438 54.460938 C 195.339844 53.671875 195.371094 53.371094 194.917969 52.941406 C 194.503906 52.542969 193.140625 51.777344 192.503906 51.585938 C 191.960938 51.417969 190.867188 51.449219 190.207031 51.644531 C 188.683594 52.101562 187.40625 53.167969 186.699219 54.578125 C 186.394531 55.183594 185.417969 58.222656 184.648438 60.949219 C 184.046875 63.082031 182.816406 67.855469 182.3125 69.988281 C 181.328125 74.1875 180.746094 78.199219 180.730469 80.851562 C 180.722656 82.363281 181.070312 85.203125 181.460938 86.789062 C 181.816406 88.210938 182.53125 89.152344 183.664062 89.691406 C 184.507812 90.097656 185.230469 90.207031 187.046875 90.207031 C 189.15625 90.207031 190.433594 89.941406 191.867188 89.207031 C 192.890625 88.683594 193.882812 87.839844 194.566406 86.90625 C 196.425781 84.378906 196.671875 83.984375 199.445312 79.113281 C 201.816406 74.953125 202.628906 73.574219 202.816406 73.417969 C 203.015625 73.25 203.445312 72.941406 203.484375 72.941406 C 203.605469 72.941406 203.550781 74.039062 203.179688 78.792969 C 202.480469 87.757812 202.394531 89.132812 202.445312 90.351562 C 202.480469 91.320312 202.550781 91.941406 202.796875 93.625 C 203.109375 95.71875 203.160156 95.875 203.695312 96.414062 C 204.136719 96.867188 204.433594 96.964844 205.335938 96.945312 C 205.710938 96.941406 206.28125 96.90625 206.605469 96.871094 C 207.324219 96.796875 209.699219 96.472656 209.824219 96.429688 C 209.878906 96.417969 209.976562 96.28125 210.039062 96.128906 C 210.292969 95.53125 210.335938 95.132812 210.425781 92.527344 C 210.527344 89.820312 210.636719 87.910156 210.773438 86.703125 C 211.160156 83.382812 212.359375 75.035156 213.46875 67.988281 C 214.449219 61.738281 214.414062 61.894531 215.503906 57.648438 L 216.203125 54.894531 L 216.203125 54.054688 C 216.203125 53.132812 216.132812 52.757812 215.832031 51.976562 C 215.425781 50.925781 214.785156 50.238281 214.011719 50.023438 C 213.53125 49.894531 211.726562 49.855469 211.207031 49.964844 Z M 211.207031 49.964844 "/>
<path style=" stroke:none;fill-rule:nonzero;fill:rgb(0%,0%,0%);fill-opacity:1;" d="M 228.925781 51.019531 C 228.546875 51.585938 228.492188 51.730469 228.375 52.371094 C 228.21875 53.214844 227.6875 55.660156 227.109375 58.179688 C 226.617188 60.320312 226.496094 60.9375 225.636719 65.699219 C 225.328125 67.375 225.011719 69.132812 224.917969 69.613281 C 224.769531 70.398438 224.757812 70.542969 224.792969 71.164062 C 224.820312 71.542969 224.847656 71.859375 224.859375 71.871094 C 224.871094 71.890625 224.980469 71.699219 225.097656 71.449219 C 225.277344 71.066406 225.398438 70.585938 225.925781 68.164062 C 226.605469 64.976562 227.617188 60.417969 228.667969 55.792969 C 229.269531 53.140625 229.375 52.601562 229.398438 52.050781 C 229.425781 51.441406 229.421875 51.378906 229.28125 51.078125 C 229.203125 50.898438 229.125 50.753906 229.113281 50.753906 C 229.101562 50.757812 229.023438 50.875 228.925781 51.019531 Z M 228.925781 51.019531 "/>
<path style=" stroke:none;fill-rule:nonzero;fill:rgb(0%,0%,0%);fill-opacity:1;" d="M 177.347656 51.1875 C 177.023438 51.328125 176.636719 51.785156 174.035156 55.039062 C 167.242188 63.546875 165.675781 65.777344 160.285156 74.652344 C 159.355469 76.183594 158.539062 77.515625 158.480469 77.617188 C 158.417969 77.722656 158.242188 77.886719 158.085938 77.976562 L 157.804688 78.152344 L 157.769531 77.839844 C 157.746094 77.671875 157.746094 77.40625 157.765625 77.246094 C 158.765625 69.242188 159.09375 66.351562 159.683594 60.515625 C 159.921875 58.164062 159.941406 57.796875 159.886719 57.433594 C 159.71875 56.320312 159.109375 55.777344 157.382812 55.171875 C 156.085938 54.722656 155.542969 54.804688 154.820312 55.542969 C 154.371094 56.007812 151.46875 60.296875 150.359375 62.136719 C 150.167969 62.457031 149.445312 63.730469 148.753906 64.976562 C 143.609375 74.222656 143.476562 74.449219 143.214844 74.582031 C 143.054688 74.664062 142.976562 74.675781 142.890625 74.625 C 142.730469 74.542969 142.632812 74.339844 142.644531 74.132812 C 142.648438 73.996094 142.625 74.03125 142.542969 74.269531 C 142.488281 74.4375 142.402344 74.605469 142.359375 74.636719 C 142.140625 74.78125 141.933594 74.867188 141.578125 74.949219 C 141.367188 74.996094 141.117188 75.074219 141.03125 75.117188 L 140.875 75.203125 L 140.832031 74.601562 C 140.8125 74.269531 140.8125 73.917969 140.832031 73.804688 C 140.898438 73.492188 142.667969 66.058594 143.265625 63.558594 C 143.574219 62.300781 144.191406 59.769531 144.65625 57.9375 C 145.109375 56.105469 145.5 54.5 145.523438 54.367188 C 145.566406 54.074219 145.523438 54.027344 144.863281 53.667969 C 143.867188 53.121094 142.753906 52.722656 142.238281 52.722656 C 141.875 52.722656 141.285156 53.203125 140.960938 53.773438 C 140.78125 54.085938 139.367188 58.054688 138.933594 59.472656 C 138.332031 61.417969 137.503906 64.964844 136.96875 67.902344 C 136.066406 72.851562 135.492188 77.757812 134.707031 87.3125 C 134.625 88.3125 134.492188 89.648438 134.417969 90.265625 C 134.238281 91.6875 134.144531 92.953125 134.191406 93.382812 C 134.273438 94.175781 134.453125 94.855469 134.742188 95.433594 C 134.933594 95.8125 135.046875 95.867188 135.445312 95.800781 C 135.578125 95.78125 136.40625 95.742188 137.277344 95.71875 C 138.921875 95.671875 139.105469 95.644531 139.433594 95.398438 C 139.710938 95.195312 139.863281 94.855469 140.277344 93.503906 C 142.40625 86.59375 145.855469 79.136719 151.492188 69.292969 C 152.175781 68.101562 152.816406 66.964844 152.914062 66.765625 C 153.144531 66.316406 153.476562 65.886719 153.71875 65.722656 L 153.914062 65.589844 L 153.984375 65.847656 C 154.078125 66.175781 154.023438 66.953125 153.695312 70.140625 C 153.511719 71.894531 153.164062 77.964844 152.800781 85.65625 C 152.648438 88.835938 152.683594 89.28125 153.132812 89.871094 C 153.816406 90.765625 155.589844 90.765625 156.457031 89.871094 C 156.804688 89.511719 156.964844 89.199219 157.902344 87.109375 C 159.179688 84.246094 159.78125 83.070312 160.660156 81.75 C 161.3125 80.765625 161.796875 80.167969 162.625 79.339844 C 163.238281 78.71875 163.40625 78.5 164.058594 77.484375 C 164.46875 76.847656 165.429688 75.300781 166.191406 74.042969 C 167.695312 71.558594 169.214844 69.109375 169.664062 68.4375 C 170 67.929688 170.199219 67.816406 170.550781 67.910156 C 170.675781 67.941406 170.78125 67.976562 170.792969 67.984375 C 170.796875 67.996094 170.699219 68.4375 170.574219 68.964844 C 169.886719 71.800781 169.3125 75.453125 169.046875 78.679688 C 168.839844 81.1875 168.808594 81.941406 168.808594 85.488281 C 168.816406 90.308594 168.914062 91.871094 169.25 92.574219 C 169.554688 93.203125 170.386719 93.910156 170.820312 93.917969 C 171.140625 93.917969 171.964844 93.378906 172.683594 92.695312 C 173.179688 92.21875 173.195312 92.15625 173 91.53125 C 172.9375 91.332031 172.886719 91.160156 172.886719 91.148438 C 172.886719 91.140625 172.941406 91.136719 173.011719 91.136719 C 173.203125 91.136719 173.589844 91.582031 173.746094 91.992188 C 173.820312 92.183594 173.929688 92.421875 173.988281 92.519531 C 174.085938 92.683594 174.828125 93.335938 174.914062 93.335938 C 174.929688 93.335938 175.074219 93.121094 175.230469 92.863281 L 175.515625 92.382812 L 175.550781 90.554688 L 175.578125 88.730469 L 176.050781 85.835938 C 178.019531 73.847656 179.386719 67.496094 181.867188 58.851562 C 182.867188 55.363281 182.902344 55.230469 182.90625 54.578125 C 182.914062 53.921875 182.804688 53.550781 182.503906 53.199219 C 182.261719 52.914062 181.71875 52.628906 181.253906 52.550781 C 181.070312 52.519531 180.769531 52.460938 180.589844 52.433594 C 180.175781 52.359375 179.636719 52.109375 179.082031 51.730469 C 178.230469 51.152344 177.769531 51.003906 177.347656 51.1875 Z M 165.179688 73.964844 C 165.164062 73.980469 165.109375 73.984375 165.070312 73.96875 C 165.023438 73.953125 165.042969 73.933594 165.105469 73.933594 C 165.167969 73.929688 165.203125 73.945312 165.179688 73.964844 Z M 174.453125 76.308594 L 174.394531 76.449219 L 174.394531 76.296875 C 174.386719 76.214844 174.40625 76.128906 174.429688 76.105469 C 174.496094 76.035156 174.507812 76.160156 174.453125 76.308594 Z M 163.105469 78.214844 C 163.132812 78.453125 163.152344 78.65625 163.144531 78.667969 C 163.132812 78.679688 162.976562 78.703125 162.796875 78.71875 L 162.46875 78.753906 L 162.507812 78.558594 C 162.53125 78.449219 162.640625 78.179688 162.757812 77.960938 C 162.996094 77.503906 163.011719 77.515625 163.105469 78.214844 Z M 174.085938 80.226562 C 174.070312 80.648438 174.035156 80.789062 173.902344 81.035156 C 173.808594 81.199219 173.660156 81.40625 173.566406 81.5 L 173.394531 81.664062 L 173.476562 81.488281 C 173.566406 81.304688 173.949219 80.152344 174.007812 79.878906 C 174.074219 79.570312 174.109375 79.726562 174.085938 80.226562 Z M 173.671875 82.554688 C 173.820312 82.988281 173.816406 83.082031 173.628906 83.082031 C 173.53125 83.082031 173.519531 83.042969 173.519531 82.746094 C 173.519531 82.566406 173.496094 82.324219 173.464844 82.21875 C 173.359375 81.859375 173.515625 82.113281 173.671875 82.554688 Z M 173.609375 86.980469 C 173.609375 88.933594 173.589844 89.304688 173.507812 89.640625 C 173.398438 90.070312 173.128906 90.691406 172.976562 90.875 C 172.886719 90.984375 172.878906 90.96875 172.90625 90.5 C 172.929688 90.226562 173.011719 88.875 173.09375 87.492188 C 173.242188 84.871094 173.277344 84.625 173.503906 84.679688 C 173.601562 84.710938 173.609375 84.855469 173.609375 86.980469 Z M 173.609375 86.980469 "/>
<path style=" stroke:none;fill-rule:nonzero;fill:rgb(0%,0%,0%);fill-opacity:1;" d="M 263.085938 53.042969 C 261.640625 53.277344 260.265625 53.871094 259.019531 54.785156 C 258.433594 55.21875 256.621094 57.046875 255.980469 57.851562 C 254.964844 59.132812 254.089844 60.550781 253.132812 62.515625 C 251.074219 66.730469 249.761719 71.148438 249.1875 75.824219 C 249.039062 77.039062 248.964844 78.765625 248.941406 81.488281 L 248.921875 83.691406 L 249.460938 85.140625 C 250.714844 88.523438 251.019531 89.277344 251.472656 90.027344 C 252.269531 91.375 253.375 92.457031 254.59375 93.09375 C 255.183594 93.394531 256.109375 93.707031 256.785156 93.828125 C 257.941406 94.039062 259.710938 93.996094 261.089844 93.738281 C 262.992188 93.367188 266.320312 91.84375 269.265625 89.996094 C 271.34375 88.683594 274.207031 86.453125 275.511719 85.128906 C 275.917969 84.710938 276.257812 84.121094 276.222656 83.886719 C 276.183594 83.582031 275.015625 83.222656 274.1875 83.269531 L 273.773438 83.285156 L 272.617188 84.160156 C 270.40625 85.828125 268.621094 86.945312 266.234375 88.140625 C 264.664062 88.929688 263.5 89.445312 262.132812 89.964844 C 260.628906 90.53125 259.570312 90.902344 259.449219 90.902344 C 259.355469 90.902344 259.253906 90.800781 259.085938 90.539062 C 258.554688 89.726562 258.265625 88.738281 258.042969 86.957031 C 257.964844 86.28125 257.941406 85.683594 257.941406 83.804688 C 257.941406 81.09375 257.941406 81.113281 258.53125 79.375 C 258.910156 78.25 259.085938 77.730469 259.265625 77.109375 C 259.402344 76.628906 259.742188 76.136719 260.113281 75.886719 C 260.71875 75.46875 261.113281 75.382812 262.738281 75.320312 C 263.4375 75.289062 265.542969 75.164062 267.414062 75.035156 L 270.820312 74.804688 L 271.050781 74.640625 C 271.175781 74.554688 271.332031 74.410156 271.390625 74.328125 C 271.546875 74.125 271.546875 73.730469 271.398438 73.4375 C 271.257812 73.167969 270.847656 72.742188 270.605469 72.613281 C 270.363281 72.484375 270.03125 72.496094 265.164062 72.804688 C 263.390625 72.914062 262.390625 72.890625 262.03125 72.742188 L 261.785156 72.636719 L 261.785156 71.871094 L 262.6875 70.191406 C 264.296875 67.183594 265.652344 64.816406 266.5 63.523438 C 266.753906 63.128906 267.121094 62.675781 267.429688 62.363281 C 267.984375 61.808594 270.402344 59.769531 270.703125 59.605469 C 270.820312 59.542969 271.019531 59.507812 271.234375 59.5 C 271.617188 59.5 272.007812 59.667969 272.75 60.140625 C 273.441406 60.585938 274.195312 60.71875 274.839844 60.503906 C 275.117188 60.417969 275.152344 60.417969 275.378906 60.511719 C 275.96875 60.753906 276.117188 60.792969 277.609375 61.113281 C 277.738281 61.136719 277.738281 61.136719 277.558594 60.742188 C 276.753906 58.957031 276.785156 58.984375 274.183594 57.246094 C 270.074219 54.496094 268.234375 53.5625 266.078125 53.121094 C 265.308594 52.964844 263.796875 52.925781 263.085938 53.042969 Z M 261.003906 64.292969 C 260.320312 66.679688 259.054688 70.898438 258.859375 71.460938 C 258.597656 72.191406 258.292969 72.804688 258.171875 72.851562 C 258.121094 72.867188 257.976562 72.886719 257.859375 72.886719 C 257.65625 72.886719 257.628906 72.863281 257.488281 72.601562 L 257.332031 72.316406 L 257.566406 71.546875 C 258.667969 67.902344 259.617188 65.683594 260.933594 63.625 C 261.125 63.332031 261.292969 63.101562 261.304688 63.117188 C 261.316406 63.128906 261.183594 63.65625 261.003906 64.292969 Z M 256.714844 76.171875 C 256.691406 76.34375 255.488281 88.335938 255.476562 88.476562 C 255.464844 88.667969 255.308594 87.792969 255.210938 86.964844 C 255.074219 85.746094 255.074219 83.527344 255.21875 82.242188 C 255.402344 80.542969 256.089844 76.699219 256.265625 76.363281 C 256.351562 76.1875 256.558594 76.015625 256.667969 76.015625 C 256.710938 76.015625 256.726562 76.082031 256.714844 76.171875 Z M 256.714844 76.171875 "/>
<path style=" stroke:none;fill-rule:nonzero;fill:rgb(0%,0%,0%);fill-opacity:1;" d="M 71.320312 53.347656 C 70.988281 53.535156 70.59375 53.761719 70.449219 53.851562 L 70.1875 54.015625 L 70.152344 55.121094 C 70.132812 55.730469 70.089844 56.898438 70.054688 57.71875 C 70.007812 58.742188 70.007812 59.523438 70.050781 60.242188 C 70.164062 62.230469 70.378906 63.179688 71.148438 65.09375 C 71.429688 65.792969 71.730469 66.597656 71.820312 66.878906 C 72.039062 67.578125 72.003906 67.921875 71.585938 69.265625 C 71.003906 71.140625 70.929688 71.550781 70.921875 72.769531 C 70.921875 73.621094 71.003906 74.410156 71.273438 76.070312 C 71.628906 78.25 71.765625 79.675781 71.71875 80.566406 L 71.699219 81.054688 L 72.285156 81.285156 C 73.039062 81.582031 73.675781 81.730469 74.507812 81.820312 C 74.871094 81.855469 75.210938 81.917969 75.257812 81.953125 C 75.472656 82.121094 75.519531 82.121094 75.402344 81.953125 C 74.265625 80.21875 73.363281 77.890625 72.996094 75.757812 C 72.839844 74.859375 72.789062 72.988281 72.882812 72.070312 C 73.101562 69.960938 73.832031 67.851562 74.941406 66.105469 C 75.074219 65.898438 75.195312 65.699219 75.21875 65.667969 C 75.242188 65.625 75.074219 65.488281 74.777344 65.308594 C 73.386719 64.445312 72.417969 63.390625 71.726562 61.964844 C 70.667969 59.785156 70.644531 56.890625 71.667969 53.835938 C 71.820312 53.382812 71.941406 53.011719 71.941406 53.011719 C 71.933594 53.011719 71.65625 53.164062 71.320312 53.347656 Z M 71.320312 53.347656 "/>
<path style=" stroke:none;fill-rule:nonzero;fill:rgb(0%,0%,0%);fill-opacity:1;" d="M 111.933594 70.207031 C 110.378906 71.917969 107.9375 73.164062 104.96875 73.753906 C 103.441406 74.054688 102.632812 74.132812 100.660156 74.132812 C 99.679688 74.132812 98.792969 74.109375 98.707031 74.085938 L 98.546875 74.039062 L 98.585938 74.316406 C 98.65625 74.773438 98.632812 77.785156 98.558594 78.535156 C 98.210938 81.917969 97.273438 84.246094 95.582031 85.957031 C 94.667969 86.878906 93.8125 87.410156 92.640625 87.804688 C 92.125 87.972656 91.847656 88.03125 90.941406 88.15625 C 90.777344 88.179688 90.753906 88.210938 90.730469 88.402344 L 90.707031 88.617188 L 90.703125 88.394531 L 90.691406 88.167969 L 90.417969 88.449219 C 89.796875 89.074219 88.945312 89.570312 88.050781 89.835938 C 87.363281 90.039062 86.175781 90.09375 85.375 89.953125 C 83.652344 89.652344 81.828125 88.683594 79.851562 87.027344 C 78.761719 86.105469 77.351562 84.636719 76.542969 83.574219 L 76.40625 83.402344 L 76.441406 83.953125 C 76.621094 86.808594 77.886719 89.433594 80.316406 92.003906 C 81.320312 93.078125 81.835938 93.527344 82.628906 94.0625 C 85.375 95.902344 89.207031 96.5625 93.550781 95.9375 C 93.996094 95.875 94.546875 95.78125 94.785156 95.730469 L 95.207031 95.636719 L 94.804688 95.53125 C 94.09375 95.351562 93.351562 94.902344 92.800781 94.316406 C 92.550781 94.050781 92.570312 94.0625 92.929688 94.390625 C 93.152344 94.601562 93.515625 94.878906 93.738281 95.011719 C 94.101562 95.226562 94.910156 95.539062 95.101562 95.539062 C 95.148438 95.539062 95.332031 95.601562 95.511719 95.683594 C 96.09375 95.945312 97.007812 96.238281 97.828125 96.4375 C 99.511719 96.84375 100.761719 96.957031 102.859375 96.910156 C 106.03125 96.835938 108.148438 96.394531 110.605469 95.300781 C 114.605469 93.511719 117.367188 90.347656 118.347656 86.449219 C 118.636719 85.289062 118.679688 84.914062 118.707031 83.300781 C 118.800781 78.117188 117.660156 73.953125 115.539062 71.703125 C 114.679688 70.792969 113.804688 70.253906 112.660156 69.9375 L 112.28125 69.832031 Z M 90.789062 89.148438 C 90.773438 89.207031 90.761719 89.160156 90.761719 89.050781 C 90.761719 88.941406 90.773438 88.894531 90.789062 88.945312 C 90.800781 89.003906 90.800781 89.097656 90.789062 89.148438 Z M 90.847656 89.582031 C 90.828125 89.625 90.816406 89.59375 90.816406 89.511719 C 90.816406 89.433594 90.828125 89.402344 90.847656 89.4375 C 90.859375 89.480469 90.859375 89.546875 90.847656 89.582031 Z M 90.90625 89.988281 C 90.886719 90.027344 90.875 90 90.875 89.917969 C 90.875 89.835938 90.886719 89.808594 90.90625 89.84375 C 90.917969 89.882812 90.917969 89.953125 90.90625 89.988281 Z M 90.960938 90.277344 C 90.945312 90.324219 90.929688 90.308594 90.929688 90.242188 C 90.921875 90.179688 90.941406 90.144531 90.957031 90.167969 C 90.972656 90.183594 90.980469 90.238281 90.960938 90.277344 Z M 91.019531 90.566406 C 91.003906 90.613281 90.984375 90.597656 90.984375 90.53125 C 90.980469 90.46875 90.996094 90.433594 91.015625 90.457031 C 91.03125 90.476562 91.039062 90.527344 91.019531 90.566406 Z M 91.019531 90.566406 "/>
<path style=" stroke:none;fill-rule:nonzero;fill:rgb(0%,0%,0%);fill-opacity:1;" d="M 224.445312 73.691406 C 224.445312 73.96875 224.519531 74.03125 224.613281 73.835938 C 224.699219 73.636719 224.691406 73.539062 224.582031 73.5 C 224.445312 73.449219 224.445312 73.449219 224.445312 73.691406 Z M 224.445312 73.691406 "/>
</g>
</svg>
